<svg width="300" height="300" viewBox="0 0 300 300" fill="none" xmlns="http://www.w3.org/2000/svg">
<path d="M300 150C300 232.843 232.843 300 150 300C67.1573 300 0 232.843 0 150C0 67.1573 67.1573 0 150 0C232.843 0 300 67.1573 300 150Z" fill="url(#paint0_linear_2_146)"/>
<path d="M65 55L83.1865 65.5V86.5L65 97L46.8135 86.5V65.5L65 55Z" fill="#00FF09"/>
<path d="M76 83L94.1865 93.5V114.5L76 125L57.8135 114.5V93.5L76 83Z" fill="#00FF09"/>
<path d="M98.1865 59.5L116.373 70V91L98.1865 101.5L80 91V70L98.1865 59.5Z" fill="#00FF09"/>
<path d="M112 86L130.187 96.5V117.5L112 128L93.8135 117.5V96.5L112 86Z" fill="#00FF09"/>
<path d="M94 111L112.187 121.5V142.5L94 153L75.8135 142.5V121.5L94 111Z" fill="#00FF09"/>
<path d="M128.5 70L141.923 77.75V93.25L128.5 101L115.077 93.25V77.75L128.5 70Z" fill="#00FF09"/>
<path d="M105.5 146L118.923 153.75V169.25L105.5 177L92.0766 169.25V153.75L105.5 146Z" fill="#00FF09"/>
<path d="M115.423 166L128.847 173.75V189.25L115.423 197L102 189.25V173.75L115.423 166Z" fill="#00FF09"/>
<path d="M109.5 209L122.923 216.75V232.25L109.5 240L96.0766 232.25V216.75L109.5 209Z" fill="#00FF09"/>
<path d="M151.5 180L164.923 187.75V203.25L151.5 211L138.077 203.25V187.75L151.5 180Z" fill="#00FF09"/>
<path d="M124.5 234L137.923 241.75V257.25L124.5 265L111.077 257.25V241.75L124.5 234Z" fill="#00FF09"/>
<path d="M126.5 192L139.923 199.75V215.25L126.5 223L113.077 215.25V199.75L126.5 192Z" fill="#00FF09"/>
<path d="M174.5 209L187.923 216.75V232.25L174.5 240L161.077 232.25V216.75L174.5 209Z" fill="#00FF09"/>
<path d="M158.5 189L171.923 196.75V212.25L158.5 220L145.077 212.25V196.75L158.5 189Z" fill="#00FF09"/>
<path d="M159.5 229L172.923 236.75V252.25L159.5 260L146.077 252.25V236.75L159.5 229Z" fill="#00FF09"/>
<path d="M142.5 260L155.923 267.75V283.25L142.5 291L129.077 283.25V267.75L142.5 260Z" fill="#00FF09"/>
<path d="M137.5 260L150.923 267.75V283.25L137.5 291L124.077 283.25V267.75L137.5 260Z" fill="#00FF09"/>
<path d="M148.5 249L161.923 256.75V272.25L148.5 280L135.077 272.25V256.75L148.5 249Z" fill="#00FF09"/>
<path d="M105.5 187L118.923 194.75V210.25L105.5 218L92.0766 210.25V194.75L105.5 187Z" fill="#00FF09"/>
<path d="M112.5 263L125.923 270V284L112.5 291L99.0766 284V270L112.5 263Z" fill="#00FF09"/>
<path d="M121.5 250L134.923 257V271L121.5 278L108.077 271V257L121.5 250Z" fill="#00FF09"/>
<path d="M121.5 222L134.923 229V243L121.5 250L108.077 243V229L121.5 222Z" fill="#00FF09"/>
<path d="M128.5 185L141.923 192V206L128.5 213L115.077 206V192L128.5 185Z" fill="#00FF09"/>
<path d="M144.5 198L157.923 205V219L144.5 226L131.077 219V205L144.5 198Z" fill="#00FF09"/>
<path d="M152.5 210L165.923 217V231L152.5 238L139.077 231V217L152.5 210Z" fill="#00FF09"/>
<path d="M142.5 230L155.923 237V251L142.5 258L129.077 251V237L142.5 230Z" fill="#00FF09"/>
<path d="M134.5 214L147.923 221V235L134.5 242L121.077 235V221L134.5 214Z" fill="#00FF09"/>
<path d="M135.5 172L148.923 179.75V195.25L135.5 203L122.077 195.25V179.75L135.5 172Z" fill="#00FF09"/>
<path d="M109.5 209L122.923 216.75V232.25L109.5 240L96.0766 232.25V216.75L109.5 209Z" fill="#00FF09"/>
<path d="M188 68L206.187 78.5V99.5L188 110L169.813 99.5V78.5L188 68Z" fill="#00FF09"/>
<path d="M206 37L224.187 47.5V68.5L206 79L187.813 68.5V47.5L206 37Z" fill="#00FF09"/>
<path d="M181 9L193.124 16V30L181 37L168.876 30V16L181 9Z" fill="#00FF09"/>
<path d="M223 54L241.187 64.5V85.5L223 96L204.813 85.5V64.5L223 54Z" fill="#00FF09"/>
<path d="M211 111L229.187 121.5V142.5L211 153L192.813 142.5V121.5L211 111Z" fill="#00FF09"/>
<path d="M189 135L207.187 145.5V166.5L189 177L170.813 166.5V145.5L189 135Z" fill="#00FF09"/>
<path d="M216 145L234.187 155.5V176.5L216 187L197.813 176.5V155.5L216 145Z" fill="#00FF09"/>
<path d="M244.5 193L258.789 201.25V217.75L244.5 226L230.211 217.75V201.25L244.5 193Z" fill="#00FF09"/>
<path d="M256.5 177L270.789 185.25V201.75L256.5 210L242.211 201.75V185.25L256.5 177Z" fill="#00FF09"/>
<path d="M223.5 222L237.789 230.25V246.75L223.5 255L209.211 246.75V230.25L223.5 222Z" fill="#00FF09"/>
<path d="M240.5 216L254.789 224.25V240.75L240.5 249L226.211 240.75V224.25L240.5 216Z" fill="#00FF09"/>
<path d="M224.5 201L238.789 209.25V225.75L224.5 234L210.211 225.75V209.25L224.5 201Z" fill="#00FF09"/>
<path d="M228.5 177L242.789 185.25V201.75L228.5 210L214.211 201.75V185.25L228.5 177Z" fill="#00FF09"/>
<path d="M244.5 160L258.789 168.25V184.75L244.5 193L230.211 184.75V168.25L244.5 160Z" fill="#00FF09"/>
<path d="M264.5 159L278.789 167.25V183.75L264.5 192L250.211 183.75V167.25L264.5 159Z" fill="#00FF09"/>
<path d="M241 107L256.588 117.25V137.75L241 148L225.412 137.75V117.25L241 107Z" fill="#00FF09"/>
<path d="M233 33L245.99 41.75V59.25L233 68L220.01 59.25V41.75L233 33Z" fill="#00FF09"/>
<path d="M262 131L280.187 141.5V162.5L262 173L243.813 162.5V141.5L262 131Z" fill="#00FF09"/>
<path d="M250 56L268.187 66.5V87.5L250 98L231.813 87.5V66.5L250 56Z" fill="#00FF09"/>
<path d="M262 131L280.187 141.5V162.5L262 173L243.813 162.5V141.5L262 131Z" fill="#00FF09"/>
<path d="M262 131L280.187 141.5V162.5L262 173L243.813 162.5V141.5L262 131Z" fill="#00FF09"/>
<path d="M236 131L254.187 141.5V162.5L236 173L217.813 162.5V141.5L236 131Z" fill="#00FF09"/>
<defs>
<linearGradient id="paint0_linear_2_146" x1="150" y1="300" x2="150" y2="0" gradientUnits="userSpaceOnUse">
<stop offset="1" stop-color="#3A61FF"/>
</linearGradient>
</defs>
</svg>
