<svg width="130" height="130" viewBox="0 0 130 130" fill="none" xmlns="http://www.w3.org/2000/svg">
<path d="M130 65C130 100.899 100.899 130 65 130C29.1015 130 0 100.899 0 65C0 29.1015 29.1015 0 65 0C100.899 0 130 29.1015 130 65Z" fill="#D9D9D9"/>
<path d="M57.2 52C57.2 59.1797 51.3797 65 44.2 65C37.0203 65 31.2 59.1797 31.2 52C31.2 44.8203 37.0203 39 44.2 39C51.3797 39 57.2 44.8203 57.2 52Z" fill="#9D9D9D"/>
<path d="M57.2 52C57.2 59.1797 51.3797 65 44.2 65C37.0203 65 31.2 59.1797 31.2 52C31.2 44.8203 37.0203 39 44.2 39C51.3797 39 57.2 44.8203 57.2 52Z" fill="#BABABA"/>
<path d="M74.1 74.1C74.1 79.1258 70.0258 83.2 65 83.2C59.9742 83.2 55.9 79.1258 55.9 74.1C55.9 69.0742 59.9742 65 65 65C70.0258 65 74.1 69.0742 74.1 74.1Z" fill="#9D9D9D"/>
<path d="M62.4 104C62.4 109.026 58.3258 113.1 53.3 113.1C48.2742 113.1 44.2 109.026 44.2 104C44.2 98.9742 48.2742 94.9 53.3 94.9C58.3258 94.9 62.4 98.9742 62.4 104Z" fill="#9D9D9D"/>
<path d="M37.7 78C37.7 83.0258 31.8797 87.1 24.7 87.1C17.5203 87.1 11.7 83.0258 11.7 78C11.7 72.9742 17.5203 68.9 24.7 68.9C31.8797 68.9 37.7 72.9742 37.7 78Z" fill="#9D9D9D"/>
<path d="M44.2 40.3C44.2 45.3258 38.3797 49.4 31.2 49.4C24.0203 49.4 18.2 45.3258 18.2 40.3C18.2 35.2742 24.0203 31.2 31.2 31.2C38.3797 31.2 44.2 35.2742 44.2 40.3Z" fill="#9D9D9D"/>
<path d="M91 32.5C91 39.6797 85.1797 45.5 78 45.5C70.8203 45.5 65 39.6797 65 32.5C65 25.3203 70.8203 19.5 78 19.5C85.1797 19.5 91 25.3203 91 32.5Z" fill="#9D9D9D"/>
<path d="M113.1 69.55C113.1 79.2426 105.243 87.1 95.55 87.1C85.8574 87.1 78 79.2426 78 69.55C78 59.8574 85.8574 52 95.55 52C105.243 52 113.1 59.8574 113.1 69.55Z" fill="#737373"/>
<path d="M119.6 52C119.6 58.4617 114.362 63.7 107.9 63.7C101.438 63.7 96.2 58.4617 96.2 52C96.2 45.5383 101.438 40.3 107.9 40.3C114.362 40.3 119.6 45.5383 119.6 52Z" fill="#BCBCBC"/>
<path d="M49.4 94.9C49.4 97.7719 47.0719 100.1 44.2 100.1C41.3281 100.1 39 97.7719 39 94.9C39 92.0281 41.3281 89.7 44.2 89.7C47.0719 89.7 49.4 92.0281 49.4 94.9Z" fill="#828282"/>
<path d="M91 106.6C91 110.19 88.0898 113.1 84.5 113.1C80.9101 113.1 78 110.19 78 106.6C78 103.01 80.9101 100.1 84.5 100.1C88.0898 100.1 91 103.01 91 106.6Z" fill="#ADADAD"/>
<path d="M91 32.5C91 39.6797 85.1797 45.5 78 45.5C70.8203 45.5 65 39.6797 65 32.5C65 25.3203 70.8203 19.5 78 19.5C85.1797 19.5 91 25.3203 91 32.5Z" fill="#9D9D9D"/>
<path d="M44.2 19.5C44.2 23.0899 41.2898 26 37.7 26C34.1101 26 31.2 23.0899 31.2 19.5C31.2 15.9101 34.1101 13 37.7 13C41.2898 13 44.2 15.9101 44.2 19.5Z" fill="#9D9D9D"/>
</svg>
